<?xml version="1.0" encoding="utf-8"?>
<!-- Generator: Adobe Illustrator 19.1.0, SVG Export Plug-In . SVG Version: 6.00 Build 0)  -->
<svg version="1.1" id="Layer_1" xmlns="http://www.w3.org/2000/svg" xmlns:xlink="http://www.w3.org/1999/xlink" x="0px" y="0px"
	 viewBox="-2221.5 1015.8 1224 1224" style="enable-background:new -2221.5 1015.8 1224 1224;" xml:space="preserve">
<style type="text/css">
	.st0{fill:#181A7E;}
</style>
<path class="st0" d="M-1609.5,2239.8c-82.6,0-162.8-16.2-238.2-48.1c-72.9-30.8-138.3-75-194.5-131.2
	c-56.2-56.2-100.3-121.7-131.2-194.5c-31.9-75.5-48.1-155.6-48.1-238.2s16.2-162.8,48.1-238.2c30.8-72.9,75-138.3,131.2-194.5
	c56.2-56.2,121.7-100.3,194.5-131.2c75.5-31.9,155.6-48.1,238.2-48.1s162.8,16.2,238.2,48.1c72.9,30.8,138.3,75,194.5,131.2
	c56.2,56.2,100.3,121.7,131.2,194.5c31.9,75.5,48.1,155.6,48.1,238.2s-16.2,162.8-48.1,238.2c-30.8,72.9-75,138.3-131.2,194.5
	c-56.2,56.2-121.7,100.3-194.5,131.2C-1446.7,2223.6-1526.9,2239.8-1609.5,2239.8z M-1609.5,1025.8c-81.3,0-160.1,15.9-234.3,47.3
	c-71.7,30.3-136.1,73.7-191.4,129s-98.7,119.7-129,191.4c-31.4,74.2-47.3,153.1-47.3,234.3c0,81.3,15.9,160.1,47.3,234.3
	c30.3,71.7,73.7,136.1,129,191.4c55.3,55.3,119.7,98.7,191.4,129c74.2,31.4,153.1,47.3,234.3,47.3s160.1-15.9,234.3-47.3
	c71.7-30.3,136.1-73.7,191.4-129c55.3-55.3,98.7-119.7,129-191.4c31.4-74.2,47.3-153.1,47.3-234.3c0-81.3-15.9-160.1-47.3-234.3
	c-30.3-71.7-73.7-136.1-129-191.4s-119.7-98.7-191.4-129C-1449.4,1041.7-1528.2,1025.8-1609.5,1025.8z"/>
<g>
	<g>
		<path class="st0" d="M-1667.8,1848.6v-49.5h49.8h4.8v49.5h-4.8H-1667.8L-1667.8,1848.6z M-1684,1582.5h-54.6V1533h54.6V1582.5
			L-1684,1582.5z M-1684,1649h-54.6v-49.5h54.6V1649L-1684,1649z M-1684,1715.5h-54.6V1666h54.6V1715.5L-1684,1715.5z M-1684,1782.1
			h-54.6v-49.5h54.6V1782.1L-1684,1782.1z M-1684,1848.6h-54.6v-49.5h54.6V1848.6L-1684,1848.6z M-1754.8,1582.5h-54.6V1533h54.6
			V1582.5L-1754.8,1582.5z M-1754.8,1649h-54.6v-49.5h54.6V1649L-1754.8,1649z M-1754.8,1715.5h-54.6V1666h54.6V1715.5
			L-1754.8,1715.5z M-1754.8,1782.1h-54.6v-49.5h54.6V1782.1L-1754.8,1782.1z M-1754.8,1848.6h-54.6v-49.5h54.6V1848.6
			L-1754.8,1848.6z M-1667.8,1732.6h49.8h4.8v49.5h-4.8h-49.8V1732.6L-1667.8,1732.6z M-1667.8,1666h49.8h4.8v49.5h-4.8h-49.8V1666
			L-1667.8,1666z M-1667.8,1599.5h49.8h4.8v49.5h-4.8h-49.8V1599.5L-1667.8,1599.5z M-1667.8,1533h49.8h4.8v49.5h-4.8h-49.8V1533
			L-1667.8,1533z M-1506.5,1487.4h114.4v24.7h-107.7h-6.7v-2.3V1487.4L-1506.5,1487.4z M-1506.5,1447.7h114.4v24.7h-114.4V1447.7
			L-1506.5,1447.7z M-1506.5,1408h114.4v24.7h-114.4V1408L-1506.5,1408z M-1506.5,1368.2h114.4v24.7h-114.4V1368.2L-1506.5,1368.2z
			 M-1392.1,1551.9h-107.7h-6.7v-24.7h6.7h107.7V1551.9L-1392.1,1551.9z M-1392.1,1591.6h-107.7h-6.7v-24.7h6.7h107.7V1591.6
			L-1392.1,1591.6z M-1392.1,1631.4h-107.7h-6.7v-24.7h6.7h107.7V1631.4L-1392.1,1631.4z M-1392.1,1671.1h-107.7h-6.7v-24.7h6.7
			h107.7V1671.1L-1392.1,1671.1z M-1392.1,1710.8h-107.7h-6.7v-24.7h6.7h107.7V1710.8L-1392.1,1710.8z M-1392.1,1750.6h-107.7h-6.7
			v-24.7h6.7h107.7V1750.6L-1392.1,1750.6z M-1424.3,1858.8h-50v-72h50V1858.8L-1424.3,1858.8z M-1542.3,1582.5h-54.6V1533h54.6
			V1582.5L-1542.3,1582.5z M-1542.3,1649h-54.6v-49.5h54.6V1649L-1542.3,1649z M-1542.3,1715.5h-54.6V1666h54.6V1715.5
			L-1542.3,1715.5z M-1542.3,1782.1h-54.6v-49.5h54.6V1782.1L-1542.3,1782.1z M-1542.3,1848.6h-54.6v-49.5h54.6V1848.6
			L-1542.3,1848.6z M-1499.8,1876.5h139.4v-554l-257.5,22.6v164.8h-213.7v366.6h213.7H-1499.8L-1499.8,1876.5z"/>
	</g>
	<path class="st0" d="M-1226.2,1761.9c0-3.4,5.7-10.2,5.7-14.8c0,0-4.5-15.9-4.5-18.2c-3.4-12.5-1.1-25-19.3-25
		c6.8-12.5,1.1-29.6-15.9-27.3c8-11.4-3.4-13.7-9.1-22.8c-4.6-4.5-5.7-12.5-13.7-15.9c1.1-4.5-1.1-6.8-2.3-10.2
		c-6.8,0-11.4,3.4-14.8,9.1v3.4c-12.5,11.4-15.9,15.9-15.9,34.1c-9.1-2.3-20.5,50.1-6.8,58c-8,5.7-11.4,18.2-6.8,22.7
		c-11.4,3.4-6.8,17.1-9.1,26.2c-2.3,9.1-8,17.1-8,26.2c0,11.4,14.8,39.8,28.4,37.5c-18.2,14.8,13.7,20.5,25,15.9
		c5.7,6.8,36.4,10.2,36.4-2.3c0,0,1.1,5.7,0,5.7c13.7-3.4,27.3-34.1,23.9-46.6C-1218.2,1806.2-1227.3,1776.6-1226.2,1761.9
		L-1226.2,1761.9z"/>
	<path class="st0" d="M-1869.6,1758.2c0-3.4,5.7-10.2,5.7-14.8c0,0-4.5-15.9-4.5-18.2c-3.4-12.5-1.1-25-19.3-25
		c6.8-12.5,1.1-29.6-15.9-27.3c8-11.4-3.4-13.7-9.1-22.8c-4.6-4.5-5.7-12.5-13.7-15.9c1.1-4.5-1.1-6.8-2.3-10.2
		c-6.8,0-11.4,3.4-14.8,9.1v3.4c-12.5,11.4-15.9,15.9-15.9,34.1c-9.1-2.3-20.5,50.1-6.8,58c-8,5.7-11.4,18.2-6.8,22.7
		c-11.4,3.4-6.8,17.1-9.1,26.2c-2.3,9.1-8,17.1-8,26.2c0,11.4,14.8,39.8,28.4,37.5c-18.2,14.8,13.7,20.5,25,15.9
		c5.7,6.8,36.4,10.2,36.4-2.3c0,0,1.1,5.7,0,5.7c13.7-3.4,27.3-34.1,23.9-46.6C-1861.6,1802.5-1870.7,1773-1869.6,1758.2
		L-1869.6,1758.2z"/>
</g>
</svg>
